{"title":"Geordie Shore S11E04 1080P WEB-DL DD5 1 H 264","uid":12746791,"size":1527597312,"categoryP":"video","categoryS":"hd___tv_shows","magnet":"?xt=urn:btih:78b7f9f1c917c8b5c590c563ed738c56464cda00&amp;dn=Geordie+Shore+S11E04+1080P+WEB-DL+DD5+1+H+264&amp;tr=udp%3A%2F%2Ftracker.leechers-paradise.org%3A6969&amp;tr=udp%3A%2F%2Fzer0day.ch%3A1337&amp;tr=udp%3A%2F%2Fopen.demonii.com%3A1337&amp;tr=udp%3A%2F%2Ftracker.coppersurfer.tk%3A6969&amp;tr=udp%3A%2F%2Fexodus.desync.com%3A6969","seeders":1,"leechers":0,"uploader":"jmanwf","files":1,"time":1447320796,"description":"The squad head back to Zante. Chloe causes carnage at the boat party while Kyle comes to a big decision over Holly. And when Marnie sees Kyle at the club, the simmering tensions boil over and it all kicks off.\r\n\r\n\r\nVideo\r\nID : 2\r\nFormat : AVC\r\nFormat/Info : Advanced Video Codec\r\nFormat profile :   \r\nFormat settings, CABAC : Yes\r\nFormat settings, ReFrames : 4 frames\r\nCodec ID : avc1\r\nCodec ID/Info : Advanced Video Coding\r\nDuration : 42mn 3s\r\nBit rate : 4 712 Kbps\r\nWidth : 1 920 pixels\r\nHeight : 1 080 pixels\r\nDisplay aspect ratio : 16:9\r\nFrame rate mode : Constant\r\nFrame rate : 25.000 fps\r\nColor space : YUV\r\nChroma subsampling : 4:2:0\r\nBit depth : 8 bits\r\nScan type : Progressive\r\nBits/(Pixel*Frame) : 0.091\r\nStream size : 1.38 GiB (97%)\r\nLanguage : English\r\nEncoded date : UTC 2015-11-12 03:59:51\r\nTagged date : UTC 2015-11-12 04:02:20\r\nColor range : Limited\r\nColor primaries : BT.709\r\nTransfer characteristics : BT.709\r\nMatrix coefficients : BT.709\r\n\r\nAudio\r\nID : 1\r\nFormat : AAC\r\nFormat/Info : Advanced Audio Codec\r\nFormat profile : LC\r\nCodec ID : 40\r\nDuration : 42mn 5s\r\nBit rate mode : Variable\r\nBit rate : 126 Kbps\r\nMaximum bit rate : 198 Kbps\r\nChannel(s) : 2 channels\r\nChannel positions : Front: L R\r\nSampling rate : 48.0 KHz\r\nCompression mode : Lossy\r\nStream size : 37.8 MiB (3%)\r\nLanguage : English\r\nEncoded date : UTC 2015-11-12 03:59:51\r\nTagged date : UTC 2015-11-12 04:02:20\r\n\r\nText\r\nID : 3-CC1\r\nFormat : EIA-608\r\nMuxing mode : Final Cut\r\nCodec ID : c608\r\nDuration : 41mn 21s\r\nBit rate mode : Constant\r\nStream size : 0.00 Byte (0%)\r\nLanguage : English\r\nEncoded date : UTC 2015-11-12 03:59:51\r\nTagged date : UTC 2015-11-12 03:59:55\r\n\r\n\r\n\r\n \nhttps://itunes.apple.com/gb/tv-season/1101/id1044567921?i=1047054891&amp;ign-mpt=uo%3D2","torrent":{"xt":"urn:btih:78b7f9f1c917c8b5c590c563ed738c56464cda00","amp;dn":"Geordie+Shore+S11E04+1080P+WEB-DL+DD5+1+H+264","amp;tr":["udp%3A%2F%2Ftracker.leechers-paradise.org%3A6969","udp%3A%2F%2Fzer0day.ch%3A1337","udp%3A%2F%2Fopen.demonii.com%3A1337","udp%3A%2F%2Ftracker.coppersurfer.tk%3A6969","udp%3A%2F%2Fexodus.desync.com%3A6969"],"infoHash":"78b7f9f1c917c8b5c590c563ed738c56464cda00","infoHashBuffer":{"type":"Buffer","data":[120,183,249,241,201,23,200,181,197,144,197,99,237,115,140,86,70,76,218,0]},"announce":[],"urlList":[]}}